C:\OpenCap\opencap-processing\Data\f695a51c-2aed-4feb-b28d-2290ed51e9ec\OpenSimData\Dynamics\Javelin25_1\GRF_resultant_Javelin25_1_0.mot
version=1
nRows=29
nColumns=19
inDegrees=yes
endheader 
time	ground_force_right_vx	ground_force_right_vy	ground_force_right_vz	ground_force_right_px	ground_force_right_py	ground_force_right_pz	ground_torque_right_x	ground_torque_right_y	ground_torque_right_z	ground_force_left_vx	ground_force_left_vy	ground_force_left_vz	ground_force_left_px	ground_force_left_py	ground_force_left_pz	ground_torque_left_x	ground_torque_left_y	ground_torque_left_z	
          4.36000000	         -0.00000000	         -0.00000000	          0.00000000	          0.00000000	          0.00000000	          0.00000000	          0.00000000	          0.00000000	          0.00000000	         -0.00000000	         -0.00000000	         -0.00000000	          0.00000000	          0.00000000	          0.00000000	          0.00000000	          0.00000000	          0.00000000	
          4.37000000	          0.00000000	          0.00000000	          0.00000000	         -2.63148355	          0.00000000	          0.08181990	          0.00000000	          0.00000000	          0.00000000	         -0.00000000	         -0.00000000	         -0.00000000	          0.00000000	          0.00000000	          0.00000000	          0.00000000	          0.00000000	          0.00000000	
          4.38000000	          0.00000032	          0.00000089	          0.00000131	         -2.63009740	          0.00000000	          0.08581581	          0.00000000	          0.00000000	          0.00000000	         -0.00000000	         -0.00000000	         -0.00000000	          0.00000000	          0.00000000	          0.00000000	          0.00000000	          0.00000000	          0.00000000	
          4.39000000	          0.01131445	          0.02518795	          0.03721197	         -2.62948301	          0.00000000	          0.08818323	          0.00000000	          0.00000060	          0.00000000	         -0.00000000	         -0.00000000	         -0.00000000	          0.00000000	          0.00000000	          0.00000000	          0.00000000	          0.00000000	          0.00000000	
          4.40000000	         15.55512590	         20.19505093	         22.47711246	         -2.63047993	          0.00000000	          0.08943169	          0.00000000	          0.00166651	          0.00000000	         -0.00000000	         -0.00000000	         -0.00000000	          0.00000000	          0.00000000	          0.00000000	          0.00000000	          0.00000000	          0.00000000	
          4.41000000	        145.99433926	        288.09920072	        297.48510827	         -2.63219708	          0.00000000	          0.08293905	          0.00000000	          0.35445800	          0.00000000	         -0.00000000	         -0.00000000	         -0.00000000	          0.00000000	          0.00000000	          0.00000000	          0.00000000	          0.00000000	          0.00000000	
          4.42000000	         16.71407135	       1144.07137541	        -66.84929889	         -2.64121423	          0.00000000	          0.04952200	          0.00000000	         14.81766852	          0.00000000	         -0.00000000	         -0.00000000	         -0.00000000	          0.00000000	          0.00000000	          0.00000000	          0.00000000	          0.00000000	          0.00000000	
          4.43000000	         -5.90433382	       1608.62570351	        -42.44538103	         -2.64605155	          0.00000000	          0.03110837	          0.00000000	         23.19840144	          0.00000000	         -0.00000000	         -0.00000000	         -0.00000000	          0.00000000	          0.00000000	          0.00000000	          0.00000000	          0.00000000	          0.00000000	
          4.44000000	        126.61173162	       1891.65700571	          3.01442180	         -2.64613451	          0.00000000	          0.02653582	          0.00000000	        -15.28366882	          0.00000000	         -0.00000000	          0.00000000	         -0.00000000	         -1.88789940	          0.00000000	         -0.16481430	          0.00000000	          0.00000000	          0.00000000	
          4.45000000	        110.13683226	       1952.69838057	         76.25824975	         -2.64572367	          0.00000000	          0.02599949	          0.00000000	         -2.70926441	          0.00000000	         -0.00000002	          0.00000001	         -0.00000001	         -1.87230359	          0.00000000	         -0.15653384	          0.00000000	         -0.00000000	          0.00000000	
          4.46000000	        122.59198853	       1742.25033599	         50.15071084	         -2.64299700	          0.00000000	          0.03097600	          0.00000000	        -16.25314224	          0.00000000	         -0.00000304	          0.00000165	         -0.00000149	         -1.85535118	          0.00000000	         -0.14698268	          0.00000000	         -0.00000000	          0.00000000	
          4.47000000	        122.96181832	       1607.05986622	        -10.66748381	         -2.63987749	          0.00000000	          0.03769661	          0.00000000	        -22.59142436	          0.00000000	         -0.00062475	          0.00036906	         -0.00033684	         -1.83644662	          0.00000000	         -0.13728516	          0.00000000	         -0.00000033	          0.00000000	
          4.48000000	        156.61366901	       1556.27475070	        -42.43262086	         -2.63741074	          0.00000000	          0.04208792	          0.00000000	        -20.79798696	          0.00000000	         -0.18246012	          0.11322687	         -0.09841525	         -1.80991088	          0.00000000	         -0.12589976	          0.00000000	         -0.00028747	          0.00000000	
          4.49000000	        193.08516299	       1596.20461733	       -104.96903632	         -2.63537395	          0.00000000	          0.04508046	          0.00000000	        -20.49240869	          0.00000000	        -28.12684109	         17.63720066	        -13.78173491	         -1.78218902	          0.00000000	         -0.11486635	          0.00000000	         -0.06310637	          0.00000000	
          4.50000000	        256.34982885	       1313.60067886	         91.35040956	         -2.63074513	          0.00000000	          0.05506529	          0.00000000	         -9.48350464	          0.00000000	       -399.68511464	        253.74770524	       -180.81268968	         -1.77034792	          0.00000000	         -0.10959339	          0.00000000	         -1.03562781	          0.00000000	
          4.51000000	        185.55595044	       1467.40152312	       -314.81456596	         -2.63074235	          0.00000000	          0.05264051	          0.00000000	        -15.44991904	          0.00000000	       -868.27072404	        642.84077522	       -361.49660691	         -1.77745770	          0.00000000	         -0.11197214	          0.00000000	         -4.11110721	          0.00000000	
          4.52000000	        230.41465357	        449.73940624	        517.86103237	         -2.61623470	          0.00000000	          0.09472700	          0.00000000	         -0.00000000	          0.00000000	      -1226.94563935	       2224.54982627	        -77.95484203	         -1.80920897	          0.00000000	         -0.13057295	          0.00000000	         21.30359032	          0.00000000	
          4.53000000	        227.66740431	        861.74953238	        -19.81593926	         -2.62317396	          0.00000000	          0.06594553	          0.00000000	          0.01441602	          0.00000000	      -1710.50058825	       3492.80294013	          2.90864817	         -1.82688227	          0.00000000	         -0.14223584	          0.00000000	         12.00236806	          0.00000000	
          4.54000000	         63.84198766	        797.51738234	       -216.23654351	         -2.62683216	          0.00000000	          0.06124585	          0.00000000	          0.00000843	          0.00000000	      -1406.11585739	       2661.91586471	        -52.63684016	         -1.81444598	          0.00000000	         -0.13458158	          0.00000000	          5.12971761	          0.00000000	
          4.55000000	        163.48441816	        238.15261055	        227.93852918	         -2.61589917	          0.00000000	          0.08489777	          0.00000000	         -0.00000000	          0.00000000	       -772.62095372	       1309.63997061	        -89.37690566	         -1.80273178	          0.00000000	         -0.12663035	          0.00000000	          8.13145931	          0.00000000	
          4.56000000	        163.28080597	        516.86240182	        -73.53966156	         -2.62595213	          0.00000000	          0.05988585	          0.00000000	         -0.00000000	          0.00000000	       -872.69629474	       1427.43561592	       -163.73796166	         -1.79596530	          0.00000000	         -0.12346082	          0.00000000	          4.82871799	          0.00000000	
          4.57000000	        115.92095460	        279.93362953	         16.14421113	         -2.62450212	          0.00000000	          0.06462080	          0.00000000	         -0.00000000	          0.00000000	       -578.25061880	       1198.57654257	        -17.33357883	         -1.81835432	          0.00000000	         -0.13888814	          0.00000000	          4.72263151	          0.00000000	
          4.58000000	         83.40789713	        371.64193686	        -91.51231042	         -2.62844354	          0.00000000	          0.05987135	          0.00000000	         -0.00000000	          0.00000000	       -683.19362252	       1260.73532007	       -286.15866250	         -1.79678738	          0.00000000	         -0.12832557	          0.00000000	        -26.54519249	          0.00000000	
          4.59000000	         -0.00334024	         -0.00520331	          0.00369196	          0.00000000	          0.00000000	          0.00000000	          0.00000000	          0.00949856	          0.00000000	        -63.64832631	        141.72541037	        142.44116130	         -1.90407287	          0.00000000	         -0.18852298	          0.00000000	          0.22063574	          0.00000000	
          4.60000000	         19.12143783	        305.52277698	       -115.47385895	         -2.63227624	          0.00000000	          0.06318340	          0.00000000	         -0.00000000	          0.00000000	       -642.74825602	       1181.94483479	       -127.37768195	         -1.80375452	          0.00000000	         -0.13891933	          0.00000000	         -4.12585352	          0.00000000	
          4.61000000	         -0.00003299	         -0.00005666	         -0.00000955	          0.00000000	          0.00000000	          0.00000000	          0.00000000	         -0.00002747	          0.00000000	       -666.53886405	       1355.28523316	        -81.77906191	         -1.82046538	          0.00000000	         -0.15257183	          0.00000000	         -6.31376174	          0.00000000	
          4.62000000	          0.00043305	         -0.00051685	          0.00026866	          0.00000000	          0.00000000	          0.00000000	          0.00000000	          0.00073814	          0.00000000	       -671.66376611	       1542.09193780	        -29.45822073	         -1.82374911	          0.00000000	         -0.15973018	          0.00000000	         -9.41028678	          0.00000000	
          4.63000000	        -97.93627293	         91.45170639	        -54.76064643	         -2.63608373	          0.00000000	          0.07004817	          0.00000000	          0.00000000	          0.00000000	       -660.86052391	       1524.13259808	         -5.34875003	         -1.82498041	          0.00000000	         -0.16817925	          0.00000000	        -13.42631664	          0.00000000	
          4.64000000	       -135.47437695	        119.08691819	        -59.68560399	         -2.62719704	          0.00000000	          0.07631357	          0.00000000	          0.00000000	          0.00000000	       -616.20950402	       1507.76242284	         34.98613541	         -1.82955516	          0.00000000	         -0.17909035	          0.00000000	        -17.94148651	          0.00000000	
